# Blender v2.83.4 OBJ File: ''
# www.blender.org
mtllib potion_1.mtl
o default_Mesh
v 0.342223 0.676279 -0.185694
v 0.213738 0.333787 -0.198258
v 0.059296 0.436449 0.000000
v 0.168464 0.750382 0.000000
v 0.397615 0.309557 0.000000
v 0.521837 0.617836 0.000000
v -0.203305 0.144324 -0.324566
v -0.358533 0.212235 0.000000
v 0.564889 -0.134161 -0.000000
v 0.403291 -0.083211 -0.324566
v 0.316759 -0.769810 -0.000000
v 0.155721 -0.691849 -0.335268
v -0.417110 -0.476989 -0.335268
v -0.589680 -0.429786 -0.000000
v 0.044601 -1.052715 -0.000000
v -0.077221 -0.996807 -0.236756
v -0.442193 -0.859886 -0.236756
v -0.570723 -0.821882 -0.000000
v 0.311307 0.964590 0.000000
v 0.430728 0.912250 -0.138827
v 0.558899 0.862130 0.000000
v 0.342223 0.676279 0.185694
v 0.213738 0.333787 0.198258
v -0.203305 0.144324 0.324566
v 0.403291 -0.083211 0.324566
v 0.155721 -0.691849 0.335268
v -0.417110 -0.476989 0.335268
v -0.077221 -0.996807 0.236756
v -0.442193 -0.859887 0.236756
v 0.430728 0.912250 0.138828
vt 0.496981 0.819493
vt 0.496981 0.665895
vt 0.316932 0.699553
vt 0.308928 0.851377
vt 0.677029 0.699553
vt 0.685033 0.851377
vt 0.200332 0.529908
vt 0.005570 0.536577
vt 0.988391 0.536577
vt 0.793629 0.529908
vt 0.979363 0.224820
vt 0.777119 0.254117
vt 0.216843 0.254117
vt 0.014598 0.224820
vt 0.821703 0.007046
vt 0.675473 0.099880
vt 0.318488 0.099880
vt 0.166775 0.007046
vt 0.370800 0.995509
vt 0.496380 0.932841
vt 0.642148 0.995530
vt 0.496981 0.819493
vt 0.496981 0.665895
vt 0.200332 0.529908
vt 0.793629 0.529908
vt 0.777119 0.254117
vt 0.216843 0.254117
vt 0.675473 0.099880
vt 0.318488 0.099880
vt 0.496380 0.932841
vn 0.0329 0.0833 -0.9960
vn 0.1623 0.4328 -0.8867
vn -0.6526 0.7577 0.0000
vn -0.9015 0.4328 0.0000
vn 0.9899 0.1416 0.0000
vn 0.9640 -0.2659 0.0000
vn -0.3874 0.4513 -0.8039
vn -0.7746 0.6325 0.0000
vn 0.9995 -0.0330 -0.0000
vn 0.5886 0.0851 -0.8039
vn 0.8449 -0.5350 -0.0000
vn 0.4187 -0.3376 -0.8431
vn -0.5374 0.0211 -0.8431
vn -0.9883 0.1527 -0.0000
vn 0.3309 -0.9437 -0.0000
vn 0.0337 -0.7915 -0.6103
vn -0.5460 -0.5740 -0.6103
vn -0.8699 -0.4932 -0.0000
vn -0.4465 0.8948 0.0000
vn 0.2301 0.5968 -0.7687
vn 0.9439 0.3303 -0.0000
vn 0.0329 0.0833 0.9960
vn 0.1623 0.4328 0.8867
vn -0.3874 0.4513 0.8039
vn 0.5886 0.0851 0.8039
vn 0.4187 -0.3376 0.8431
vn -0.5374 0.0211 0.8431
vn 0.0337 -0.7915 0.6103
vn -0.5460 -0.5740 0.6103
vn 0.2301 0.5968 0.7687
usemtl default.001
s 1
f 1/1/1 2/2/2 3/3/3
f 3/3/3 4/4/4 1/1/1
f 5/5/5 2/2/2 1/1/1
f 1/1/1 6/6/6 5/5/5
f 7/7/7 8/8/8 3/3/3
f 3/3/3 2/2/2 7/7/7
f 5/5/5 9/9/9 10/10/10
f 10/10/10 2/2/2 5/5/5
f 10/10/10 7/7/7 2/2/2
f 11/11/11 12/12/12 10/10/10
f 10/10/10 9/9/9 11/11/11
f 7/7/7 13/13/13 14/14/14
f 14/14/14 8/8/8 7/7/7
f 10/10/10 12/12/12 13/13/13
f 13/13/13 7/7/7 10/10/10
f 15/15/15 16/16/16 12/12/12
f 12/12/12 11/11/11 15/15/15
f 13/13/13 17/17/17 18/18/18
f 18/18/18 14/14/14 13/13/13
f 17/17/17 13/13/13 12/12/12
f 17/17/17 12/12/12 16/16/16
f 16/16/16 15/15/15 18/18/18
f 17/17/17 16/16/16 18/18/18
f 4/4/4 19/19/19 20/20/20
f 20/20/20 1/1/1 4/4/4
f 1/1/1 20/20/20 21/21/21
f 21/21/21 6/6/6 1/1/1
f 20/20/20 19/19/19 21/21/21
f 22/22/22 4/4/4 3/3/3
f 3/3/3 23/23/23 22/22/22
f 5/5/5 6/6/6 22/22/22
f 22/22/22 23/23/23 5/5/5
f 24/24/24 23/23/23 3/3/3
f 3/3/3 8/8/8 24/24/24
f 5/5/5 23/23/23 25/25/25
f 25/25/25 9/9/9 5/5/5
f 25/25/25 23/23/23 24/24/24
f 11/11/11 9/9/9 25/25/25
f 25/25/25 26/26/26 11/11/11
f 24/24/24 8/8/8 14/14/14
f 14/14/14 27/27/27 24/24/24
f 25/25/25 24/24/24 27/27/27
f 27/27/27 26/26/26 25/25/25
f 15/15/15 11/11/11 26/26/26
f 26/26/26 28/28/28 15/15/15
f 27/27/27 14/14/14 18/18/18
f 18/18/18 29/29/29 27/27/27
f 29/29/29 26/26/26 27/27/27
f 29/29/29 28/28/28 26/26/26
f 28/28/28 18/18/18 15/15/15
f 29/29/29 18/18/18 28/28/28
f 4/4/4 22/22/22 30/30/30
f 30/30/30 19/19/19 4/4/4
f 22/22/22 6/6/6 21/21/21
f 21/21/21 30/30/30 22/22/22
f 30/30/30 21/21/21 19/19/19
