# Blender v2.83.4 OBJ File: 'BlenderNatureAsset.blend'
# www.blender.org
mtllib rock_1.mtl
o caillou1_Icosphere
v -0.019104 -0.975624 0.083891
v 0.652085 -0.964640 0.525366
v -0.251200 -0.975624 0.798220
v -0.997474 -1.048572 -0.009708
v -0.251200 -0.975624 -0.630438
v 0.588541 -0.975624 -0.357584
v 0.113845 0.043482 0.798220
v -0.848511 -0.009762 0.525366
v -0.676361 0.007259 -0.540356
v 0.222717 0.047961 -0.738854
v 0.952365 0.169150 0.096698
v 0.063354 0.632217 0.312175
v -0.155526 -0.975624 0.503760
v 0.341844 -0.974970 0.343382
v 0.201638 -0.975624 0.763255
v 0.757210 -0.964909 0.083891
v 0.338058 -0.975624 -0.175600
v -0.472043 -0.975624 0.083891
v -0.740232 -0.975624 0.503761
v -0.155526 -0.975624 -0.335978
v -0.680109 -1.034244 -0.411193
v 0.201638 -0.975624 -0.595472
v 0.964744 -0.493094 0.347672
v 0.879485 -0.507491 -0.171114
v -0.087561 -0.592371 0.923636
v 0.504285 -0.547299 0.763259
v -1.059997 -0.582398 0.304956
v -0.685048 -0.592372 0.763259
v -0.541733 -0.576685 -0.703073
v -1.083744 -0.692321 -0.355070
v 0.474486 -0.552450 -0.595477
v -0.012389 -0.552517 -0.816649
v 0.659562 0.197375 0.508127
v -0.528365 -0.011570 0.763255
v -0.858039 0.119340 0.040079
v -0.212083 0.153212 -0.844850
v 0.628181 0.189617 -0.331907
v 0.078960 0.624574 0.587101
v 0.527138 0.598099 0.168358
v -0.425021 0.519172 0.397941
v -0.350548 0.465183 -0.234745
v 0.137918 0.493864 -0.409029
vn 0.0015 -1.0000 0.0005
vn 0.0289 -0.9996 0.0075
vn 0.0000 -1.0000 0.0000
vn 0.8496 -0.4870 0.2026
vn 0.0725 -0.3380 0.9384
vn -0.7896 -0.4125 0.4542
vn -0.3673 -0.4187 -0.8305
vn 0.4962 -0.3200 -0.8071
vn 0.6710 -0.1733 0.7209
vn -0.2539 -0.2012 0.9461
vn -0.9824 -0.1753 0.0645
vn -0.1864 -0.3057 -0.9337
vn 0.7209 -0.1817 -0.6688
vn 0.3660 0.3371 0.8674
vn -0.4936 0.5563 0.6685
vn -0.6477 0.6843 -0.3349
vn 0.3237 0.6017 -0.7302
vn 0.6059 0.6718 -0.4262
vn 0.0009 -1.0000 -0.0013
vn 0.0286 -0.9996 0.0080
vn 0.0138 -0.9997 0.0190
vn 0.0249 -0.9997 0.0011
vn 0.0009 -1.0000 0.0013
vn 0.1233 -0.9892 0.0788
vn 0.1163 -0.9925 -0.0378
vn 0.1000 -0.9921 0.0754
vn 0.1260 -0.9899 0.0643
vn 0.9861 -0.0425 -0.1609
vn 0.9330 -0.3298 -0.1442
vn 0.8569 -0.4061 -0.3175
vn 0.2522 0.1098 0.9614
vn 0.2703 -0.1910 0.9437
vn 0.4489 -0.3172 0.8354
vn -0.7729 0.0417 0.6332
vn -0.7416 -0.2996 0.6002
vn -0.4603 -0.4513 0.7645
vn -0.5529 0.1029 -0.8269
vn -0.4391 -0.3851 -0.8118
vn -0.6001 -0.6269 -0.4968
vn 0.4132 -0.0439 -0.9096
vn 0.3997 -0.2577 -0.8797
vn 0.0693 -0.4344 -0.8981
vn 0.4094 0.2181 0.8859
vn 0.6577 0.1178 0.7440
vn 0.8010 0.2252 0.5546
vn -0.5883 0.1587 0.7929
vn -0.2586 0.0698 0.9635
vn -0.0714 0.2148 0.9741
vn -0.8483 0.4031 -0.3434
vn -0.9620 0.2728 -0.0108
vn -0.9453 0.3102 0.1011
vn 0.2436 0.0302 -0.9694
vn -0.2046 -0.0968 -0.9741
vn -0.5670 0.0972 -0.8180
vn 0.7921 0.1490 -0.5920
vn 0.7147 0.0979 -0.6925
vn 0.6835 0.1145 -0.7209
vn 0.0805 0.9965 0.0231
vn 0.5445 0.6398 0.5424
vn 0.6738 0.5946 0.4387
vn -0.2187 0.9750 0.0395
vn -0.3904 0.5724 0.7211
vn -0.0799 0.3361 0.9384
vn -0.2425 0.9638 -0.1108
vn -0.6078 0.7820 -0.1383
vn -0.7449 0.6410 0.1851
vn -0.1283 0.9714 -0.1996
vn -0.2222 0.8467 -0.4834
vn -0.5330 0.6982 -0.4780
vn 0.0143 0.9823 -0.1870
vn 0.5165 0.7114 -0.4766
vn 0.4659 0.5818 -0.6667
usemtl Material.004
s off
f 1//1 14//1 13//1
f 2//2 14//2 16//2
f 1//3 13//3 18//3
f 1//3 18//3 20//3
f 1//3 20//3 17//3
f 2//4 16//4 23//4
f 3//5 15//5 25//5
f 4//6 19//6 27//6
f 5//7 21//7 29//7
f 6//8 22//8 31//8
f 2//9 23//9 26//9
f 3//10 25//10 28//10
f 4//11 27//11 30//11
f 5//12 29//12 32//12
f 6//13 31//13 24//13
f 7//14 33//14 38//14
f 8//15 34//15 40//15
f 9//16 35//16 41//16
f 10//17 36//17 42//17
f 11//18 37//18 39//18
f 13//3 15//3 3//3
f 13//19 14//19 15//19
f 14//20 2//20 15//20
f 16//21 17//21 6//21
f 16//22 14//22 17//22
f 14//23 1//23 17//23
f 18//24 19//24 4//24
f 18//3 13//3 19//3
f 13//3 3//3 19//3
f 20//25 21//25 5//25
f 20//26 18//26 21//26
f 18//27 4//27 21//27
f 17//3 22//3 6//3
f 17//3 20//3 22//3
f 20//3 5//3 22//3
f 23//28 24//28 11//28
f 23//29 16//29 24//29
f 16//30 6//30 24//30
f 25//31 26//31 7//31
f 25//32 15//32 26//32
f 15//33 2//33 26//33
f 27//34 28//34 8//34
f 27//35 19//35 28//35
f 19//36 3//36 28//36
f 29//37 30//37 9//37
f 29//38 21//38 30//38
f 21//39 4//39 30//39
f 31//40 32//40 10//40
f 31//41 22//41 32//41
f 22//42 5//42 32//42
f 26//43 33//43 7//43
f 26//44 23//44 33//44
f 23//45 11//45 33//45
f 28//46 34//46 8//46
f 28//47 25//47 34//47
f 25//48 7//48 34//48
f 30//49 35//49 9//49
f 30//50 27//50 35//50
f 27//51 8//51 35//51
f 32//52 36//52 10//52
f 32//53 29//53 36//53
f 29//54 9//54 36//54
f 24//55 37//55 11//55
f 24//56 31//56 37//56
f 31//57 10//57 37//57
f 38//58 39//58 12//58
f 38//59 33//59 39//59
f 33//60 11//60 39//60
f 40//61 38//61 12//61
f 40//62 34//62 38//62
f 34//63 7//63 38//63
f 41//64 40//64 12//64
f 41//65 35//65 40//65
f 35//66 8//66 40//66
f 42//67 41//67 12//67
f 42//68 36//68 41//68
f 36//69 9//69 41//69
f 39//70 42//70 12//70
f 39//71 37//71 42//71
f 37//72 10//72 42//72
