# Blender v2.83.4 OBJ File: 'BlenderNatureAsset.blend'
# www.blender.org
mtllib tree_2.mtl
o SapinHiver.015_Cylinder.034
v -0.038142 0.536184 -0.424417
v -0.179509 4.441838 -0.036002
v 0.228938 0.641013 -0.290353
v -0.175500 4.442010 -0.034459
v 0.382998 0.555936 -0.019544
v -0.173707 4.442110 -0.030424
v 0.250373 0.645627 0.260949
v -0.175181 4.442079 -0.026262
v -0.005425 0.543227 0.417077
v -0.179058 4.441935 -0.024409
v -0.280012 0.624361 0.281748
v -0.183067 4.441762 -0.025952
v -0.426566 0.523476 0.012203
v -0.184860 4.441662 -0.029987
v -0.301446 0.619747 -0.269554
v -0.183386 4.441694 -0.034149
v -0.061295 1.171583 -0.365155
v -0.084447 1.806981 -0.305894
v -0.107600 2.442380 -0.246632
v -0.130752 3.077779 -0.187370
v -0.153905 3.713177 -0.128109
v -0.091452 3.809055 -0.095814
v -0.027374 3.175447 -0.134722
v 0.036704 2.541838 -0.173630
v 0.100782 1.908230 -0.212538
v 0.164860 1.274621 -0.251445
v -0.050956 3.718006 -0.029136
v 0.035835 3.085591 -0.027218
v 0.122626 2.453177 -0.025299
v 0.209417 1.820763 -0.023381
v 0.296208 1.188349 -0.021462
v -0.086212 3.810183 0.038953
v -0.018895 3.177272 0.083353
v 0.048422 2.544361 0.127752
v 0.115739 1.911449 0.172151
v 0.183056 1.278538 0.216550
v -0.145907 3.714899 0.077597
v -0.117811 3.080564 0.145493
v -0.089714 2.446230 0.213389
v -0.061618 1.811896 0.281285
v -0.033522 1.177561 0.349181
v -0.215866 3.804984 0.044038
v -0.228695 3.168859 0.091580
v -0.241524 2.532735 0.139122
v -0.254353 1.896610 0.186664
v -0.267182 1.260486 0.234206
v -0.248856 3.710071 -0.021376
v -0.284398 3.072752 -0.014660
v -0.319940 2.435432 -0.007944
v -0.355482 1.798114 -0.001228
v -0.391024 1.160795 0.005488
v -0.221106 3.803856 -0.090730
v -0.237174 3.167034 -0.126495
v -0.253242 2.530213 -0.162260
v -0.269310 1.893391 -0.198024
v -0.285378 1.256569 -0.233789
v -0.154349 3.682803 -0.170503
v -0.064476 3.779880 -0.124571
v -0.008762 3.689631 -0.030539
v -0.057066 3.781475 0.066013
v -0.143039 3.685237 0.120399
v -0.240419 3.774123 0.073203
v -0.288627 3.678409 -0.019564
v -0.247829 3.772528 -0.117381
v -0.132319 3.047163 -0.258636
v 0.017064 3.146843 -0.183108
v 0.105804 3.058330 -0.029710
v 0.029184 3.149452 0.128613
v -0.113820 3.051145 0.217166
v -0.270710 3.137427 0.140374
v -0.351944 3.039977 -0.011759
v -0.282829 3.134819 -0.171347
v -0.110036 2.411576 -0.340267
v 0.094671 2.513677 -0.237224
v 0.214116 2.426779 -0.028635
v 0.111170 2.517229 0.187115
v -0.084854 2.416997 0.307432
v -0.297068 2.500860 0.203124
v -0.409007 2.401795 -0.004200
v -0.313566 2.497309 -0.221214
v -0.087924 1.775954 -0.426282
v 0.174930 1.880598 -0.294320
v 0.326645 1.795397 -0.027726
v 0.196030 1.885140 0.248380
v -0.055718 1.782887 0.402081
v -0.326078 1.864206 0.268855
v -0.470287 1.763444 0.003526
v -0.347178 1.859664 -0.273845
v -0.065849 1.140323 -0.513247
v 0.255764 1.247538 -0.352063
v 0.440089 1.164052 -0.026853
v 0.281514 1.253081 0.310245
v -0.026544 1.148784 0.497681
v -0.355663 1.227533 0.335232
v -0.532481 1.125056 0.011287
v -0.381413 1.221990 -0.327076
v 0.331656 0.614316 -0.404250
v 0.545671 0.532391 -0.025671
v 0.361640 0.620771 0.366958
v 0.002311 0.514614 0.585109
v -0.380306 0.591022 0.396053
v -0.586815 0.486984 0.018739
v -0.410290 0.584568 -0.375154
v -0.043455 0.504762 -0.592041
v 0.017764 -0.562685 -0.122338
v -0.033166 0.699139 -0.130919
v 0.105022 -0.558934 -0.088753
v 0.054092 0.702889 -0.097333
v 0.144039 -0.556762 -0.000940
v 0.093109 0.705061 -0.009521
v 0.111958 -0.557441 0.089660
v 0.061029 0.704382 0.081080
v 0.027573 -0.560573 0.129976
v -0.023356 0.701250 0.121396
v -0.059685 -0.564323 0.096391
v -0.110615 0.697500 0.087811
v -0.098702 -0.566495 0.008579
v -0.149632 0.695328 -0.000002
v -0.066622 -0.565816 -0.082022
v -0.117551 0.696007 -0.090602
vn 0.3589 0.0081 -0.9333
vn 0.9130 0.0341 -0.4065
vn 0.9418 0.0403 0.3338
vn 0.4303 0.0235 0.9024
vn -0.3589 -0.0081 0.9333
vn -0.9130 -0.0341 0.4065
vn -0.0403 0.9992 -0.0068
vn -0.4303 -0.0235 -0.9024
vn -0.9418 -0.0403 -0.3338
vn 0.0403 -0.9992 0.0068
vn 0.2924 0.1766 -0.9399
vn 0.9144 0.2008 -0.3516
vn 0.9388 0.2061 0.2761
vn 0.3643 0.1921 0.9112
vn -0.3062 0.1652 0.9375
vn -0.9278 0.1312 0.3493
vn -0.3781 0.1497 -0.9136
vn -0.9522 0.1260 -0.2784
vn 0.3398 0.3021 -0.8907
vn 0.3368 0.2791 -0.8993
vn 0.3348 0.2456 -0.9097
vn 0.3276 0.2123 -0.9207
vn 0.3063 0.1832 -0.9341
vn 0.8593 0.3194 -0.3994
vn 0.8688 0.2973 -0.3960
vn 0.8804 0.2651 -0.3931
vn 0.8928 0.2334 -0.3854
vn 0.9079 0.2064 -0.3647
vn 0.8875 0.3255 0.3261
vn 0.8967 0.3033 0.3223
vn 0.9081 0.2711 0.3191
vn 0.9198 0.2392 0.3110
vn 0.9334 0.2119 0.2896
vn 0.4077 0.3167 0.8564
vn 0.4055 0.2938 0.8656
vn 0.4043 0.2606 0.8767
vn 0.3980 0.2274 0.8888
vn 0.3778 0.1986 0.9043
vn -0.3635 0.2858 0.8867
vn -0.3587 0.2632 0.8956
vn -0.3540 0.2302 0.9065
vn -0.3442 0.1977 0.9179
vn -0.3206 0.1706 0.9317
vn -0.8825 0.2545 0.3955
vn -0.8901 0.2317 0.3924
vn -0.8991 0.1986 0.3900
vn -0.9089 0.1659 0.3827
vn -0.9218 0.1375 0.3624
vn -0.4315 0.2712 -0.8604
vn -0.4273 0.2484 -0.8693
vn -0.4235 0.2152 -0.8800
vn -0.4145 0.1825 -0.8916
vn -0.3921 0.1552 -0.9067
vn -0.9107 0.2484 -0.3300
vn -0.9181 0.2257 -0.3259
vn -0.9268 0.1927 -0.3223
vn -0.9359 0.1600 -0.3137
vn -0.9473 0.1321 -0.2920
vn 0.4274 -0.6085 0.6686
vn -0.6846 -0.6521 -0.3258
vn -0.6568 -0.6461 0.3888
vn 0.3746 -0.6198 -0.6895
vn -0.3766 -0.6500 -0.6601
vn 0.7347 -0.5903 0.3342
vn -0.3238 -0.6386 0.6981
vn 0.7070 -0.5963 -0.3804
vn 0.3511 -0.7831 0.5134
vn -0.5144 -0.8174 -0.2592
vn -0.4922 -0.8126 0.3120
vn 0.3107 -0.7918 -0.5259
vn -0.2865 -0.8157 -0.5025
vn 0.5785 -0.7697 0.2700
vn -0.2461 -0.8070 0.5368
vn 0.5563 -0.7745 -0.3012
vn 0.2837 -0.8606 0.4229
vn -0.4135 -0.8885 -0.1991
vn -0.3962 -0.8848 0.2454
vn 0.2505 -0.8677 -0.4292
vn -0.2132 -0.8863 -0.4111
vn 0.4836 -0.8495 0.2109
vn -0.1800 -0.8792 0.4411
vn 0.4664 -0.8532 -0.2336
vn 0.2417 -0.9061 0.3474
vn -0.3308 -0.9295 -0.1632
vn -0.3166 -0.9264 0.2039
vn 0.2145 -0.9119 -0.3499
vn -0.1677 -0.9272 -0.3349
vn 0.4046 -0.8975 0.1756
vn -0.1406 -0.9214 0.3624
vn 0.3903 -0.9006 -0.1914
vn 0.2114 -0.9327 0.2922
vn -0.2706 -0.9528 -0.1375
vn -0.2585 -0.9502 0.1740
vn 0.1887 -0.9376 -0.2921
vn -0.1354 -0.9506 -0.2794
vn 0.3464 -0.9260 0.1503
vn -0.1126 -0.9457 0.3049
vn 0.3343 -0.9286 -0.1612
vn 0.1860 -0.9475 0.2600
vn -0.2348 -0.9652 -0.1151
vn -0.2245 -0.9630 0.1491
vn 0.1659 -0.9519 -0.2578
vn -0.1089 -0.9629 -0.2470
vn 0.3118 -0.9415 0.1281
vn -0.0888 -0.9585 0.2708
vn 0.3015 -0.9437 -0.1362
usemtl Material.008
s off
f 105//1 106//1 108//1 107//1
f 107//2 108//2 110//2 109//2
f 109//3 110//3 112//3 111//3
f 111//4 112//4 114//4 113//4
f 113//5 114//5 116//5 115//5
f 115//6 116//6 118//6 117//6
f 108//7 106//7 120//7 118//7 116//7 114//7 112//7 110//7
f 119//8 120//8 106//8 105//8
f 117//9 118//9 120//9 119//9
f 105//10 107//10 109//10 111//10 113//10 115//10 117//10 119//10
usemtl Material.009
f 57//11 2//11 4//11 58//11
f 58//12 4//12 6//12 59//12
f 59//13 6//13 8//13 60//13
f 60//14 8//14 10//14 61//14
f 61//15 10//15 12//15 62//15
f 62//16 12//16 14//16 63//16
f 64//17 16//17 2//17 57//17
f 63//18 14//18 16//18 64//18
f 1//10 3//10 5//10 7//10 9//10 11//10 13//10 15//10
f 4//7 2//7 16//7 14//7 12//7 10//7 8//7 6//7
f 104//19 17//19 26//19 97//19
f 89//20 18//20 25//20 90//20
f 81//21 19//21 24//21 82//21
f 73//22 20//22 23//22 74//22
f 65//23 21//23 22//23 66//23
f 97//24 26//24 31//24 98//24
f 90//25 25//25 30//25 91//25
f 82//26 24//26 29//26 83//26
f 74//27 23//27 28//27 75//27
f 66//28 22//28 27//28 67//28
f 98//29 31//29 36//29 99//29
f 91//30 30//30 35//30 92//30
f 83//31 29//31 34//31 84//31
f 75//32 28//32 33//32 76//32
f 67//33 27//33 32//33 68//33
f 99//34 36//34 41//34 100//34
f 92//35 35//35 40//35 93//35
f 84//36 34//36 39//36 85//36
f 76//37 33//37 38//37 77//37
f 68//38 32//38 37//38 69//38
f 100//39 41//39 46//39 101//39
f 93//40 40//40 45//40 94//40
f 85//41 39//41 44//41 86//41
f 77//42 38//42 43//42 78//42
f 69//43 37//43 42//43 70//43
f 101//44 46//44 51//44 102//44
f 94//45 45//45 50//45 95//45
f 86//46 44//46 49//46 87//46
f 78//47 43//47 48//47 79//47
f 70//48 42//48 47//48 71//48
f 103//49 56//49 17//49 104//49
f 96//50 55//50 18//50 89//50
f 88//51 54//51 19//51 81//51
f 80//52 53//52 20//52 73//52
f 72//53 52//53 21//53 65//53
f 102//54 51//54 56//54 103//54
f 95//55 50//55 55//55 96//55
f 87//56 49//56 54//56 88//56
f 79//57 48//57 53//57 80//57
f 71//58 47//58 52//58 72//58
f 21//59 57//59 58//59 22//59
f 22//60 58//60 59//60 27//60
f 27//61 59//61 60//61 32//61
f 32//62 60//62 61//62 37//62
f 37//63 61//63 62//63 42//63
f 42//64 62//64 63//64 47//64
f 52//65 64//65 57//65 21//65
f 47//66 63//66 64//66 52//66
f 20//67 65//67 66//67 23//67
f 23//68 66//68 67//68 28//68
f 28//69 67//69 68//69 33//69
f 33//70 68//70 69//70 38//70
f 38//71 69//71 70//71 43//71
f 43//72 70//72 71//72 48//72
f 53//73 72//73 65//73 20//73
f 48//74 71//74 72//74 53//74
f 19//75 73//75 74//75 24//75
f 24//76 74//76 75//76 29//76
f 29//77 75//77 76//77 34//77
f 34//78 76//78 77//78 39//78
f 39//79 77//79 78//79 44//79
f 44//80 78//80 79//80 49//80
f 54//81 80//81 73//81 19//81
f 49//82 79//82 80//82 54//82
f 18//83 81//83 82//83 25//83
f 25//84 82//84 83//84 30//84
f 30//85 83//85 84//85 35//85
f 35//86 84//86 85//86 40//86
f 40//87 85//87 86//87 45//87
f 45//88 86//88 87//88 50//88
f 55//89 88//89 81//89 18//89
f 50//90 87//90 88//90 55//90
f 17//91 89//91 90//91 26//91
f 26//92 90//92 91//92 31//92
f 31//93 91//93 92//93 36//93
f 36//94 92//94 93//94 41//94
f 41//95 93//95 94//95 46//95
f 46//96 94//96 95//96 51//96
f 56//97 96//97 89//97 17//97
f 51//98 95//98 96//98 56//98
f 1//99 104//99 97//99 3//99
f 3//100 97//100 98//100 5//100
f 5//101 98//101 99//101 7//101
f 7//102 99//102 100//102 9//102
f 9//103 100//103 101//103 11//103
f 11//104 101//104 102//104 13//104
f 15//105 103//105 104//105 1//105
f 13//106 102//106 103//106 15//106
